<?xml version="1.0" standalone="no"?>
<!DOCTYPE svg PUBLIC "-//W3C//DTD SVG 20010904//EN"
 "http://www.w3.org/TR/2001/REC-SVG-20010904/DTD/svg10.dtd">
<svg version="1.0" xmlns="http://www.w3.org/2000/svg"
 width="4000.000000pt" height="3000.000000pt" viewBox="0 0 4000.000000 3000.000000"
 preserveAspectRatio="xMidYMid meet">

<g transform="translate(0.000000,3000.000000) scale(0.100000,-0.100000)"
fill="#000000" stroke="none">
<path d="M0 15000 l0 -15000 20000 0 20000 0 0 15000 0 15000 -20000 0 -20000
0 0 -15000z m28280 14640 c0 -5 -4 -10 -10 -10 -5 0 -10 5 -10 10 0 6 5 10 10
10 6 0 10 -4 10 -10z m1724 -164 c-6 -15 -24 -23 -24 -11 0 8 24 34 28 30 1
-1 0 -10 -4 -19z m-1524 -106 c0 -5 -5 -10 -11 -10 -5 0 -7 5 -4 10 3 6 8 10
11 10 2 0 4 -4 4 -10z m610 -40 c0 -5 -4 -10 -10 -10 -5 0 -10 5 -10 10 0 6 5
10 10 10 6 0 10 -4 10 -10z m-695 -40 c3 -5 -1 -10 -10 -10 -9 0 -13 5 -10 10
3 6 8 10 10 10 2 0 7 -4 10 -10z m-185 -174 c0 -3 -4 -8 -10 -11 -5 -3 -10 -1
-10 4 0 6 5 11 10 11 6 0 10 -2 10 -4z m-293 -468 c-3 -8 -6 -5 -6 6 -1 11 2
17 5 13 3 -3 4 -12 1 -19z m-141 -5853 c-9 -9 -16 -13 -16 -8 0 12 22 34 28
28 2 -2 -3 -11 -12 -20z m-496 -41 c0 -8 -5 -12 -10 -9 -6 4 -8 11 -5 16 9 14
15 11 15 -7z m45 6 c-3 -5 -10 -10 -16 -10 -5 0 -9 5 -9 10 0 6 7 10 16 10 8
0 12 -4 9 -10z m159 -26 c9 -3 17 -16 17 -28 1 -16 2 -17 6 -3 5 19 29 23 35
6 2 -7 12 -7 32 1 37 14 42 8 21 -23 -10 -15 -12 -28 -6 -31 5 -4 12 -2 16 3
3 6 12 8 20 4 18 -6 20 8 3 25 -9 9 -9 15 0 24 9 9 12 9 12 -1 0 -7 5 -9 10
-6 6 4 8 11 5 16 -4 5 -2 9 4 9 5 0 15 2 23 5 7 3 19 1 27 -4 12 -8 12 -13 3
-24 -7 -8 -9 -22 -6 -31 5 -14 9 -13 30 9 14 15 29 22 38 19 9 -4 18 0 22 10
3 9 14 16 24 16 15 0 17 -5 10 -34 -6 -28 -4 -35 10 -39 10 -3 23 0 29 6 8 8
11 8 11 0 0 -6 -7 -13 -15 -17 -20 -7 -9 -31 21 -44 29 -14 33 -36 4 -27 -14
4 -20 2 -20 -9 0 -18 22 -34 28 -18 2 6 10 8 18 5 8 -3 14 0 14 7 0 13 28 39
43 40 4 0 7 -12 7 -26 0 -14 -4 -23 -10 -19 -5 3 -10 1 -10 -5 0 -17 -26 -40
-45 -40 -8 0 -18 -7 -22 -16 -4 -12 -8 -12 -13 -4 -5 9 -10 6 -15 -9 -3 -12
-15 -21 -26 -21 -10 0 -19 -4 -19 -10 0 -5 5 -10 10 -10 6 0 10 -4 10 -10 0
-5 -9 -10 -20 -10 -11 0 -20 -4 -20 -10 0 -5 -9 -10 -20 -10 -11 0 -20 -4 -20
-10 0 -13 33 -13 47 1 8 8 13 8 17 0 4 -6 0 -11 -8 -11 -9 0 -16 -6 -16 -14 0
-8 -14 -24 -30 -36 -26 -18 -29 -24 -18 -37 10 -12 9 -17 -5 -24 -9 -5 -19
-26 -23 -47 -9 -51 -13 -56 -32 -38 -14 12 -21 12 -41 1 -20 -10 -25 -22 -27
-60 -2 -27 -8 -53 -14 -59 -7 -7 -10 -7 -10 1 0 8 -7 8 -25 0 -32 -15 -32 -31
0 -25 15 3 25 1 25 -7 0 -17 45 -39 69 -32 19 5 19 3 5 -18 -10 -15 -12 -25
-5 -30 16 -9 13 -25 -4 -25 -8 0 -15 7 -15 15 0 18 -19 20 -22 3 0 -7 -2 -17
-3 -23 -2 -5 -3 -17 -4 -26 0 -9 -10 -26 -21 -39 -22 -25 -26 -40 -10 -40 15
0 12 -36 -4 -49 -11 -9 -20 -9 -35 -2 -27 15 -31 14 -25 -4 5 -12 -3 -15 -40
-15 -51 0 -58 -9 -23 -33 l22 -16 -22 -7 c-13 -3 -20 -11 -16 -17 4 -6 1 -7
-6 -3 -7 5 -18 1 -25 -10 -12 -16 -15 -16 -37 -1 -27 20 -60 22 -76 6 -18 -18
-73 -21 -90 -4 -15 15 -63 21 -63 7 0 -13 -39 -32 -55 -26 -27 11 -17 32 13
27 21 -4 24 -2 12 6 -12 9 -11 11 8 11 13 0 22 6 22 15 0 8 4 15 9 15 5 0 7
17 4 39 -3 21 0 48 6 60 11 20 9 21 -28 21 -27 0 -43 5 -49 16 -6 11 -17 15
-31 11 -13 -3 -28 1 -37 11 -15 14 -15 17 -1 27 22 16 32 62 18 79 -10 11 -7
19 11 36 l23 22 -22 -7 c-27 -8 -33 19 -7 29 14 5 13 9 -6 24 -17 14 -20 23
-14 46 5 20 11 26 25 23 11 -3 16 0 12 8 -3 8 4 15 19 17 17 2 24 11 26 31 2
15 -2 27 -8 27 -13 0 -10 42 4 52 6 4 9 26 8 50 -2 31 0 39 8 28 8 -13 10 -12
10 3 0 11 10 27 22 37 l23 18 -28 13 c-15 7 -27 18 -27 24 0 16 88 14 95 -2 6
-17 35 -16 35 1 0 7 7 19 15 26 14 11 10 16 -25 37 -36 22 -41 29 -38 56 3 27
7 32 33 35 25 2 33 -2 40 -22 8 -20 13 -24 25 -16 13 8 10 13 -14 33 -25 21
-27 24 -12 36 9 8 20 11 23 7 4 -4 1 -11 -7 -16 -12 -8 -11 -10 5 -10 30 0 47
14 39 33 -4 13 -1 17 15 17 25 0 28 18 4 27 -14 5 -13 8 7 15 14 5 28 4 36 -3
10 -8 17 -7 29 5 17 17 34 20 59 10z m-178 -36 l19 -21 -32 6 c-18 4 -35 2
-38 -3 -7 -11 -25 -4 -25 9 0 7 36 29 51 30 3 1 14 -9 25 -21z m-201 -128 c3
-5 -1 -10 -10 -10 -9 0 -13 5 -10 10 3 6 8 10 10 10 2 0 7 -4 10 -10z m-391
-48 c7 -31 14 -42 27 -42 22 0 23 -6 8 -48 -7 -22 -7 -36 0 -51 17 -32 -3 -33
-32 -1 -31 32 -33 40 -12 40 8 0 15 9 15 20 0 11 -4 20 -9 20 -9 0 -22 35 -34
88 -4 18 -2 22 11 20 11 -2 20 -19 26 -46z m1313 42 c-3 -3 -12 -4 -19 -1 -8
3 -5 6 6 6 11 1 17 -2 13 -5z m-837 -49 c0 -19 -4 -35 -8 -35 -4 0 -6 16 -4
35 2 19 6 35 8 35 2 0 4 -16 4 -35z m-63 3 c-3 -8 -6 -5 -6 6 -1 11 2 17 5 13
3 -3 4 -12 1 -19z m30 -30 c-3 -7 -5 -2 -5 12 0 14 2 19 5 13 2 -7 2 -19 0
-25z m73 28 c0 -2 -7 -9 -15 -16 -12 -10 -15 -10 -15 4 0 9 7 16 15 16 8 0 15
-2 15 -4z m775 -6 c-3 -5 -12 -10 -18 -10 -7 0 -6 4 3 10 19 12 23 12 15 0z
m-120 -70 c3 -5 1 -10 -4 -10 -6 0 -11 5 -11 10 0 6 2 10 4 10 3 0 8 -4 11
-10z m1195 1 c0 -5 -7 -14 -15 -21 -12 -10 -15 -10 -15 2 0 8 3 18 7 21 9 10
23 9 23 -2z m80 -20 c0 -10 -58 -36 -66 -29 -2 3 10 13 28 21 39 20 38 19 38
8z m-2070 -56 c0 -14 -4 -25 -10 -25 -11 0 -14 33 -3 43 11 11 13 8 13 -18z
m-405 -5 c3 -5 -1 -10 -10 -10 -9 0 -13 5 -10 10 3 6 8 10 10 10 2 0 7 -4 10
-10z m362 -22 c-3 -8 -6 -5 -6 6 -1 11 2 17 5 13 3 -3 4 -12 1 -19z m1923 8
c0 -3 -4 -8 -10 -11 -5 -3 -10 -1 -10 4 0 6 5 11 10 11 6 0 10 -2 10 -4z
m-1150 -26 c0 -5 -5 -10 -11 -10 -5 0 -7 5 -4 10 3 6 8 10 11 10 2 0 4 -4 4
-10z m-30 -27 c0 -8 -5 -13 -12 -11 -18 6 -21 25 -3 25 8 0 15 -7 15 -14z
m105 -3 c-3 -5 -10 -10 -16 -10 -5 0 -9 5 -9 10 0 6 7 10 16 10 8 0 12 -4 9
-10z m91 1 c-3 -5 -15 -11 -26 -14 -17 -4 -19 -3 -9 9 12 15 44 20 35 5z m189
-11 c-10 -11 -20 -18 -23 -15 -7 6 18 35 31 35 5 0 2 -9 -8 -20z m-67 -77 c-2
-10 -12 -19 -23 -20 -11 -2 -14 0 -7 3 6 3 12 12 12 20 0 8 5 14 11 14 6 0 9
-8 7 -17z m-328 -43 c-21 -7 -21 -8 -5 -9 15 -1 10 -6 -18 -21 -41 -22 -47
-24 -47 -12 0 20 43 52 68 51 l27 -1 -25 -8z m-129 -43 c-8 -8 -11 -3 -11 19
1 25 2 27 11 11 8 -14 8 -22 0 -30z m222 -27 c-14 -14 -46 -16 -50 -3 -2 6 8
18 24 27 25 13 28 13 31 -1 2 -8 0 -19 -5 -23z m-858 0 c3 -5 2 -10 -3 -10 -5
0 -13 -10 -17 -22 l-7 -23 -7 25 c-4 14 -6 28 -4 33 6 10 31 9 38 -3z m805
-20 c0 -5 -7 -10 -15 -10 -8 0 -15 5 -15 10 0 6 7 10 15 10 8 0 15 -4 15 -10z
m110 4 c0 -9 -32 -33 -44 -34 -5 0 -1 9 9 20 18 20 35 26 35 14z m-203 -10
c-3 -3 -12 -4 -19 -1 -8 3 -5 6 6 6 11 1 17 -2 13 -5z m373 -44 c0 -5 -4 -10
-10 -10 -5 0 -10 5 -10 10 0 6 5 10 10 10 6 0 10 -4 10 -10z m-30 -10 c0 -5
-7 -10 -16 -10 -8 0 -12 5 -9 10 3 6 10 10 16 10 5 0 9 -4 9 -10z m-1403 -6
c-3 -3 -12 -4 -19 -1 -8 3 -5 6 6 6 11 1 17 -2 13 -5z m370 -47 c-5 -17 -35
-32 -44 -23 -4 5 -2 11 5 13 6 3 12 11 12 19 0 8 6 11 15 7 9 -3 14 -10 12
-16z m890 17 c-3 -3 -12 -4 -19 -1 -8 3 -5 6 6 6 11 1 17 -2 13 -5z m-197 -40
c0 -14 -4 -23 -9 -19 -6 3 -14 -2 -19 -11 -17 -30 -24 4 -7 36 18 34 35 31 35
-6z m171 -4 c-13 -12 -21 -26 -17 -35 8 -22 23 -18 30 8 7 29 48 51 65 34 8
-8 14 -8 23 1 7 7 20 12 29 12 15 0 17 -6 12 -35 -3 -19 -2 -35 2 -35 4 0 24
13 44 28 47 37 68 44 75 26 3 -9 -1 -14 -14 -14 -11 0 -26 -11 -35 -24 -8 -12
-31 -31 -50 -42 -44 -23 -47 -48 -6 -42 29 4 30 3 26 -31 -2 -20 -4 -38 -4
-40 -1 -2 -7 2 -15 9 -8 6 -12 18 -9 26 3 8 -1 14 -11 14 -9 0 -16 5 -16 10 0
24 -27 7 -42 -27 -14 -32 -14 -38 -2 -41 11 -3 8 -9 -9 -22 -31 -24 -100 -22
-105 3 -4 18 -32 24 -32 7 0 -5 -7 -10 -16 -10 -9 0 -23 -8 -30 -17 -19 -27
-28 -8 -14 28 12 28 11 33 -3 44 -9 7 -17 17 -17 23 0 6 -6 13 -12 16 -10 5
-10 7 0 12 6 3 12 13 12 22 1 11 6 8 16 -10 22 -41 45 -33 48 16 1 14 9 22 24
24 19 3 23 9 20 30 -3 28 16 51 42 51 10 0 8 -6 -9 -19z m-81 0 c0 -5 -5 -10
-11 -10 -5 0 -7 5 -4 10 3 6 8 10 11 10 2 0 4 -4 4 -10z m-851 -44 c-7 -14
-16 -26 -20 -26 -4 0 -1 14 8 31 18 36 29 33 12 -5z m1195 -1 c-4 -8 -10 -15
-15 -15 -5 0 -9 7 -9 15 0 8 7 15 15 15 9 0 12 -6 9 -15z m-404 -12 c0 -14
-15 -29 -32 -36 -11 -4 -18 -17 -18 -32 0 -19 -5 -25 -21 -25 -17 0 -20 4 -15
23 3 12 6 28 6 35 0 7 5 10 10 7 6 -3 10 1 10 9 0 13 9 17 53 25 4 0 7 -2 7
-6z m490 -23 c0 -5 -7 -10 -16 -10 -8 0 -12 5 -9 10 3 6 10 10 16 10 5 0 9 -4
9 -10z m-1441 -66 c-15 -18 -22 -13 -13 10 3 9 10 13 16 10 5 -3 4 -12 -3 -20z
m271 -26 c9 -3 4 -7 -12 -10 -23 -4 -28 -2 -28 15 0 14 3 17 13 10 6 -6 19
-12 27 -15z m575 -18 c6 0 13 -10 17 -21 6 -14 3 -21 -10 -25 -36 -11 -47 -22
-50 -48 -3 -23 -5 -24 -18 -11 -12 11 -20 12 -35 5 -13 -7 -19 -7 -19 0 0 5 8
10 17 10 14 0 13 3 -5 23 -28 30 -28 37 1 34 18 -2 22 2 19 22 -1 17 2 22 13
18 8 -4 17 -2 20 3 4 6 13 7 23 1 9 -5 22 -10 27 -11z m-765 -20 c0 -5 -7 -7
-15 -4 -8 4 -12 10 -9 15 6 11 24 2 24 -11z m260 10 c0 -5 -7 -10 -15 -10 -8
0 -15 5 -15 10 0 6 7 10 15 10 8 0 15 -4 15 -10z m-342 -47 c-10 -2 -26 -2
-35 0 -10 3 -2 5 17 5 19 0 27 -2 18 -5z m1212 -14 c0 -14 -17 -10 -23 5 -4
10 -1 13 9 9 7 -3 14 -9 14 -14z m-300 1 c0 -5 -10 -10 -22 -10 -19 0 -20 2
-8 10 19 13 30 13 30 0z m160 -6 c0 -8 -5 -12 -10 -9 -6 4 -8 11 -5 16 9 14
15 11 15 -7z m-1060 -26 c0 -7 -5 -20 -10 -28 -8 -12 -10 -9 -10 13 0 15 5 27
10 27 6 0 10 -6 10 -12z m570 -13 c0 -12 -40 -29 -48 -20 -2 2 -1 12 2 23 7
22 46 19 46 -3z m290 15 c0 -5 -2 -10 -4 -10 -3 0 -8 5 -11 10 -3 6 -1 10 4
10 6 0 11 -4 11 -10z m-163 -16 c-3 -3 -12 -4 -19 -1 -8 3 -5 6 6 6 11 1 17
-2 13 -5z m-37 -20 c0 -9 -9 -18 -20 -21 -10 -3 -22 -13 -25 -23 -9 -30 -34
-45 -48 -31 -9 9 -9 14 3 21 13 9 13 11 1 19 -12 8 -12 12 -2 25 21 26 91 34
91 10z m270 6 c-36 -11 -52 -11 -45 0 3 6 21 10 38 9 31 -1 31 -1 7 -9z m270
-4 c0 -9 -30 -14 -35 -6 -4 6 3 10 14 10 12 0 21 -2 21 -4z m-1330 -42 c0 -8
-5 -12 -10 -9 -6 4 -8 11 -5 16 9 14 15 11 15 -7z m130 7 c0 -6 -4 -13 -10
-16 -5 -3 -10 1 -10 9 0 9 5 16 10 16 6 0 10 -4 10 -9z m1020 -11 c0 -5 -2
-10 -4 -10 -3 0 -8 5 -11 10 -3 6 -1 10 4 10 6 0 11 -4 11 -10z m-660 -60 c0
-5 -10 -10 -22 -10 -19 0 -20 2 -8 10 19 13 30 13 30 0z m61 -13 c-13 -13 -26
-3 -16 12 3 6 11 8 17 5 6 -4 6 -10 -1 -17z m679 13 c0 -5 -5 -10 -11 -10 -5
0 -7 5 -4 10 3 6 8 10 11 10 2 0 4 -4 4 -10z m-620 -20 c0 -5 -7 -10 -15 -10
-8 0 -15 5 -15 10 0 6 7 10 15 10 8 0 15 -4 15 -10z m-130 -29 c0 -5 -7 -11
-14 -14 -10 -4 -13 -1 -9 9 6 15 23 19 23 5z m260 -1 c0 -5 -4 -10 -10 -10 -5
0 -10 5 -10 10 0 6 5 10 10 10 6 0 10 -4 10 -10z"/>
<path d="M27535 22680 c-4 -6 -3 -16 3 -22 13 -13 23 4 13 21 -7 10 -10 10
-16 1z"/>
<path d="M27401 22661 c-20 -15 -21 -19 -7 -24 10 -4 16 -1 16 8 0 8 7 15 15
15 8 0 15 5 15 10 0 15 -12 12 -39 -9z"/>
<path d="M27476 22644 c-7 -19 2 -37 15 -29 12 8 12 45 0 45 -5 0 -12 -7 -15
-16z"/>
<path d="M27761 22644 c0 -11 3 -14 6 -6 3 7 2 16 -1 19 -3 4 -6 -2 -5 -13z"/>
<path d="M27550 22625 c0 -10 7 -15 18 -13 21 4 19 22 -2 26 -10 2 -16 -3 -16
-13z"/>
<path d="M27846 22541 c-4 -7 -5 -15 -2 -18 9 -9 19 4 14 18 -4 11 -6 11 -12
0z"/>
<path d="M27610 22490 c0 -5 -6 -10 -12 -10 -20 0 -59 -65 -52 -84 8 -20 16
-20 58 2 30 16 86 71 86 84 0 3 -13 3 -30 0 -18 -3 -30 0 -30 7 0 6 -4 11 -10
11 -5 0 -10 -4 -10 -10z"/>
<path d="M27298 22472 c-10 -2 -18 -7 -18 -10 0 -4 -3 -18 -7 -31 -4 -17 -3
-22 5 -17 17 10 15 -6 -3 -30 -33 -44 -1 -48 38 -4 24 27 25 30 9 39 -18 10
-16 11 25 23 18 5 -30 34 -49 30z"/>
<path d="M27160 22390 c0 -5 6 -10 14 -10 8 0 18 5 21 10 3 6 -3 10 -14 10
-12 0 -21 -4 -21 -10z"/>
<path d="M27318 22349 c-22 -23 -23 -49 -3 -49 8 0 15 7 15 15 0 9 7 18 15 21
18 7 20 34 3 33 -7 0 -21 -9 -30 -20z"/>
<path d="M27698 22283 c-7 -10 -22 -23 -33 -29 -31 -17 -32 -44 -1 -44 25 0
36 13 56 64 11 30 -2 35 -22 9z"/>
<path d="M27598 22144 c-5 -4 -8 -19 -8 -33 1 -23 2 -24 11 -8 11 19 9 53 -3
41z"/>
<path d="M27550 22110 c0 -5 5 -10 11 -10 5 0 7 5 4 10 -3 6 -8 10 -11 10 -2
0 -4 -4 -4 -10z"/>
<path d="M27373 22069 c-11 -18 -29 -33 -46 -36 -18 -4 -25 -9 -18 -16 6 -6
17 -4 32 7 13 9 34 16 47 16 19 0 23 4 19 20 -3 11 -1 20 5 20 5 0 6 5 3 10
-11 17 -23 11 -42 -21z"/>
<path d="M27470 22036 c0 -7 11 -16 25 -18 27 -6 32 1 13 20 -16 16 -38 15
-38 -2z"/>
<path d="M27108 22003 c7 -3 16 -2 19 1 4 3 -2 6 -13 5 -11 0 -14 -3 -6 -6z"/>
<path d="M27453 21993 c-13 -5 -18 -33 -7 -33 3 0 17 9 31 20 22 17 23 20 7
19 -11 0 -25 -3 -31 -6z"/>
<path d="M27440 21924 c0 -8 5 -12 10 -9 6 4 8 11 5 16 -9 14 -15 11 -15 -7z"/>
<path d="M27260 21920 c-5 -3 -6 -26 -2 -55 7 -44 5 -55 -20 -96 -15 -25 -28
-52 -28 -58 0 -7 -5 -9 -11 -5 -7 4 -10 1 -7 -6 8 -25 23 -20 41 11 14 26 20
29 32 19 12 -10 15 -9 15 4 0 9 -4 16 -10 16 -5 0 -10 5 -10 11 0 6 7 9 15 6
8 -4 17 -2 20 4 4 5 25 9 47 7 33 -2 44 2 56 20 17 26 39 29 45 5 4 -15 5 -15
6 2 1 28 -18 95 -28 95 -5 0 -11 -13 -14 -29 -8 -38 -37 -50 -37 -15 0 22 -4
25 -21 21 -18 -5 -20 -2 -15 18 5 20 2 23 -29 27 -19 2 -39 1 -45 -2z m75
-110 c-3 -5 -13 -10 -21 -10 -8 0 -12 5 -9 10 3 6 13 10 21 10 8 0 12 -4 9
-10z"/>
<path d="M27080 21909 c0 -5 5 -7 10 -4 6 3 10 8 10 11 0 2 -4 4 -10 4 -5 0
-10 -5 -10 -11z"/>
<path d="M27485 21867 c-35 -19 -37 -22 -17 -25 25 -4 25 -5 13 -50 -12 -41 3
-42 24 -2 13 24 20 29 39 24 20 -5 23 -2 24 25 0 21 -6 34 -18 41 -23 12 -17
13 -65 -13z"/>
<path d="M27190 21760 c-8 -5 -10 -10 -5 -10 6 0 17 5 25 10 8 5 11 10 5 10
-5 0 -17 -5 -25 -10z"/>
<path d="M27386 21723 c-4 -5 -12 -8 -17 -8 -5 0 -9 -3 -9 -7 0 -5 0 -12 0
-17 0 -13 48 -7 62 7 5 5 7 15 4 21 -8 13 -29 14 -40 4z"/>
<path d="M27250 21680 c-8 -5 -10 -10 -5 -10 6 0 17 5 25 10 8 5 11 10 5 10
-5 0 -17 -5 -25 -10z"/>
<path d="M28015 21869 c-10 -15 3 -25 16 -12 7 7 7 13 1 17 -6 3 -14 1 -17 -5z"/>
<path d="M27883 21853 c-18 -8 -33 -23 -33 -32 1 -14 3 -13 15 3 10 13 18 16
27 9 14 -10 24 -10 50 1 20 9 13 30 -7 22 -8 -3 -15 -1 -17 4 -2 5 -18 2 -35
-7z"/>
</g>
</svg>
